<?xml version="1.0" standalone="no"?>
<!DOCTYPE svg PUBLIC "-//W3C//DTD SVG 20010904//EN"
 "http://www.w3.org/TR/2001/REC-SVG-20010904/DTD/svg10.dtd">
<svg version="1.0" xmlns="http://www.w3.org/2000/svg"
 width="100.000000pt" height="100.000000pt" viewBox="0 0 100.000000 100.000000"
 preserveAspectRatio="xMidYMid meet">
<metadata>
Created by potrace 1.16, written by Peter Selinger 2001-2019
</metadata>
<g transform="translate(0.000000,100.000000) scale(0.100000,-0.100000)"
fill="#000000" stroke="none">
<path d="M436 630 c-16 -57 -34 -100 -41 -100 -18 0 -48 37 -40 50 6 9 10 9
17 -1 8 -11 9 -11 5 1 -5 20 -31 19 -35 -2 -3 -17 25 -52 48 -60 10 -3 9 -15
-4 -55 -22 -67 -52 -105 -80 -101 -41 6 -28 98 14 98 25 0 27 -36 3 -44 -14
-4 -14 -4 2 -3 27 3 28 50 2 55 -26 5 -57 -26 -57 -59 0 -44 10 -59 40 -59 36
0 72 42 95 110 19 59 35 65 35 14 0 -28 3 -35 18 -32 13 3 16 12 14 46 -4 68
13 48 25 -28 6 -39 19 -83 30 -98 12 -19 18 -46 18 -90 0 -60 2 -65 37 -98 58
-53 121 -41 147 29 28 73 18 274 -15 325 -14 21 -20 23 -57 17 -23 -4 -46 -11
-51 -16 -16 -15 -26 -10 -26 11 0 24 -29 41 -57 34 -22 -6 -20 -13 -39 116 -3
22 -9 40 -12 40 -4 0 -20 -45 -36 -100z m131 -83 c9 -11 5 -41 -7 -44 -9 -3
-11 -1 -4 4 7 5 4 14 -9 26 -18 18 -18 18 -15 -10 4 -35 36 -42 63 -13 25 28
43 26 37 -5 -5 -28 22 -45 41 -26 9 9 9 16 -1 31 -16 26 -15 30 7 30 33 0 46
-54 45 -180 -2 -167 -29 -216 -109 -196 -45 11 -78 90 -59 140 4 9 18 16 34
16 16 0 32 5 35 10 9 15 25 2 25 -20 0 -22 -23 -33 -39 -17 -8 8 -11 8 -11 0
0 -17 32 -25 46 -11 19 20 5 147 -18 162 -24 15 -52 -3 -56 -36 -4 -32 27 -47
45 -22 7 9 9 22 5 28 -4 7 -8 5 -10 -6 -4 -20 -32 -25 -32 -5 0 22 17 39 36
35 14 -2 20 -13 22 -41 3 -32 0 -37 -18 -37 -12 0 -30 -5 -40 -10 -16 -8 -22
-6 -34 13 -16 24 -47 176 -38 190 3 7 51 1 59 -6z"/>
</g>
</svg>
